<svg xmlns="http://www.w3.org/2000/svg" viewBox="0 0 900 600" role="img" aria-labelledby="title desc">
  <title id="title">Workspace with long table and daylight</title>
  <desc id="desc">A quiet workspace scene with a table, chairs, and broad windows.</desc>
  <rect width="900" height="600" fill="#f0eee8"/>
  <rect x="80" y="70" width="740" height="260" rx="8" fill="#d8e4e7"/>
  <g fill="#ffffff" opacity=".78">
    <rect x="118" y="95" width="150" height="210"/>
    <rect x="296" y="95" width="150" height="210"/>
    <rect x="474" y="95" width="150" height="210"/>
    <rect x="652" y="95" width="130" height="210"/>
  </g>
  <rect x="110" y="376" width="680" height="48" rx="8" fill="#766b5f"/>
  <rect x="164" y="424" width="22" height="108" fill="#4f4a44"/>
  <rect x="714" y="424" width="22" height="108" fill="#4f4a44"/>
  <g fill="#38444a">
    <rect x="156" y="452" width="76" height="58" rx="14"/>
    <rect x="336" y="452" width="76" height="58" rx="14"/>
    <rect x="516" y="452" width="76" height="58" rx="14"/>
    <rect x="696" y="452" width="76" height="58" rx="14"/>
  </g>
  <path d="M0 532h900v68H0z" fill="#c8c4ba"/>
</svg>
